Coordinates
version=1
nRows=27
nColumns=19
inDegrees=yes

Units are S.I. units (second, meters, Newtons, ...)
If the header above contains a line with 'inDegrees', this indicates whether rotational values are in degrees (yes) or radians (no).

endheader
time	pelvis_tilt	pelvis_list	pelvis_rotation	pelvis_tx	pelvis_ty	pelvis_tz	hip_flexion_r	hip_adduction_r	hip_rotation_r	knee_angle_r	knee_angle_r_beta	ankle_angle_r	hip_flexion_l	hip_adduction_l	hip_rotation_l	knee_angle_l	knee_angle_l_beta	ankle_angle_l
     13.30666667	     -9.36646790	      5.56962811	      5.88064794	      2.36177811	      0.96719856	      0.98290606	    -12.98046482	     -2.14391031	     -6.55069940	     49.37155717	      0.86169623	    -15.92367628	     31.17928573	     10.56617521	     -3.89375409	     16.80159302	      0.29324312	     -6.44599606
     13.31333333	     -8.98140191	      6.02657888	      6.40756540	      2.36183231	      0.96325680	      0.98204285	    -12.14750736	     -2.92144303	     -7.33089964	     53.85981584	      0.94003112	    -15.23715614	     30.63343547	     11.38762677	     -4.28297728	     17.30800625	      0.30208170	     -5.97108861
     13.32000000	     -8.63470220	      6.48595541	      7.03760633	      2.36168155	      0.95886964	      0.98109436	    -11.20619423	     -3.72265410	     -8.11506594	     58.36302673	      1.01862698	    -14.51134681	     30.27515177	     12.19629098	     -4.66927232	     18.58775649	      0.32441755	     -4.74375706
     13.32666667	     -8.15253428	      7.00627831	      7.69408392	      2.36139254	      0.95431595	      0.98014735	    -10.36982088	     -4.61030735	     -8.87293005	     62.80949692	      1.09623252	    -13.77944444	     29.83214502	     13.01481555	     -5.01739780	     20.46251556	      0.35713827	     -2.82276783
     13.33333333	     -7.58920128	      7.55256053	      8.32697956	      2.36095130	      0.94957699	      0.97929089	     -9.56003592	     -5.51127122	     -9.46853732	     67.20216828	      1.17289910	    -12.81925208	     29.30976376	     13.81258368	     -5.21955315	     22.77654617	      0.39752572	     -0.34848892
     13.34000000	     -7.93871906	      7.52116943	      8.81875059	      2.35992195	      0.94346594	      0.97870350	     -7.34964732	     -5.89937659	     -9.44754178	     71.78279782	      1.25284617	    -11.93988625	     30.10148721	     13.97216953	     -5.49054344	     25.93174705	      0.45259437	      2.74864013
     13.34666667	     -7.74617101	      7.69126005	      9.24325447	      2.35891085	      0.93787905	      0.97826177	     -5.75187678	     -6.45624186	     -9.43779881	     76.11810396	      1.32851153	    -10.88498094	     30.10231863	     14.31188775	     -5.41305296	     29.02952943	      0.50666087	      6.17525115
     13.35333333	     -7.54730682	      7.74281252	      9.53324077	      2.35770327	      0.93228104	      0.97803329	     -3.99997232	     -6.88740721	     -9.18823351	     80.32620669	      1.40195678	     -9.72702717	     30.02969216	     14.51538144	     -5.11661374	     32.18061790	      0.56165774	      9.79339532
     13.36000000	     -7.35033286	      7.70738789	      9.67139243	      2.35632094	      0.92682487	      0.97799295	     -2.07768011	     -7.24228327	     -8.71772569	     84.38005080	      1.47270971	     -8.49264970	     29.84438473	     14.61547466	     -4.65413337	     35.23014661	      0.61488205	     13.44103602
     13.36666667	     -6.78158163	      7.77496203	      9.67094444	      2.35491464	      0.92209864	      0.97811328	     -0.50126898	     -7.68202222	     -8.16395061	     88.14930218	      1.53849556	     -7.19830403	     29.02186256	     14.76128641	     -4.08554889	     37.94763857	      0.66231124	     17.03334811
     13.37333333	     -6.93462494	      7.42284969	      9.51948232	      2.35300453	      0.91687889	      0.97837120	      2.22551371	     -7.76845072	     -7.27072235	     91.86145579	      1.60328486	     -5.93074004	     28.99852973	     14.52004241	     -3.48100304	     40.59263024	      0.70847505	     20.25977299
     13.38000000	     -6.73519559	      7.21265533	      9.25355440	      2.35112007	      0.91263159	      0.97875657	      4.61168047	     -7.97210085	     -6.35209336	     95.21278554	      1.66177660	     -4.66695357	     28.31752415	     14.31905204	     -2.93250017	     42.75375168	      0.74619373	     23.20986303
     13.38666667	     -6.56432240	      6.98477993	      8.89637245	      2.34914235	      0.90897064	      0.97922733	      7.15071273	     -8.15674339	     -5.35455312	     98.25375777	      1.71485158	     -3.41701071	     27.46683822	     14.03262548	     -2.46340897	     44.50072005	      0.77668408	     25.76149699
     13.39333333	     -5.97663743	      6.88799821	      8.58080666	      2.34728898	      0.90650116	      0.97962214	      9.18407454	     -8.45906867	     -4.51444730	    100.82684633	      1.75976044	     -2.15209542	     25.86821662	     13.83462285	     -1.91062947	     45.73153086	      0.79816579	     27.95464400
     13.40000000	     -6.29999251	      6.53230766	      7.99972453	      2.34506426	      0.90361215	      0.98032031	     12.58721507	     -8.47961938	     -3.25461442	    103.25469363	      1.80213437	     -1.20871318	     25.23427728	     13.24757202	     -1.83990548	     46.70580349	      0.81517005	     29.62377500
     13.40666667	     -5.98422721	      6.32967082	      7.66280916	      2.34321456	      0.90220600	      0.98070250	     15.05700468	     -8.65783241	     -2.44761337	    105.07356881	      1.83387973	     -0.13130487	     23.56848856	     12.85262270	     -1.45765411	     47.16340572	      0.82315672	     31.05493280
     13.41333333	     -6.26946172	      6.04774577	      7.17861691	      2.34124545	      0.90071840	      0.98124439	     18.36106587	     -8.68450535	     -1.41452029	    106.61611695	      1.86080228	      0.69790790	     22.46542129	     12.28916405	     -1.43967087	     47.32370101	      0.82595440	     31.92769520
     13.42000000	     -6.13896692	      5.81352805	      6.84997246	      2.33969613	      0.90042141	      0.98150124	     21.00450966	     -8.76053789	     -0.71157746	    107.58966881	      1.87779396	      1.53842135	     20.63635367	     11.80367928	     -1.20994652	     47.05091144	      0.82119332	     32.67344877
     13.42666667	     -6.06278520	      5.38820808	      6.77808994	      2.33847401	      0.90087852	      0.98146737	     23.53451270	     -8.68826460	     -0.43829187	    108.02186214	      1.88533716	      2.19662051	     18.68553049	     11.18672831	     -0.71435015	     46.44903388	      0.81068858	     32.80643518
     13.43333333	     -6.45524276	      5.22272985	      6.22050222	      2.33730008	      0.90105298	      0.98174476	     26.72878096	     -8.64453123	      0.50603422	    108.28388733	      1.88991036	      2.77515729	     17.14084148	     10.71011737	     -0.95734159	     45.55778184	      0.79513329	     32.90970735
     13.44000000	     -6.64609513	      4.72146565	      6.21930314	      2.33665060	      0.90222374	      0.98137278	     29.29057908	     -8.48172204	      0.53692094	    107.89840096	      1.88318235	      3.28082219	     15.22812287	     10.04391186	     -0.52015534	     44.46958457	      0.77614067	     32.69877166
     13.44666667	     -6.93522978	      4.27033482	      6.04752855	      2.33631612	      0.90382795	      0.98109196	     31.86002734	     -8.21051424	      0.72199447	    107.14353820	      1.87000751	      3.67405315	     13.28328068	      9.45592327	     -0.14024189	     43.08219928	      0.75192623	     32.21292419
     13.45333333	     -7.27245452	      3.80566380	      5.83535719	      2.33631387	      0.90583573	      0.98081463	     34.31330712	     -7.86326512	      0.84553154	    106.01797571	      1.85036274	      3.93600586	     11.28058484	      8.84784863	      0.16288239	     41.44252964	      0.72330859	     31.31665600
     13.46000000	     -7.25969776	      3.42291087	      5.49209416	      2.33691198	      0.90876857	      0.98058620	     36.13877273	     -7.52055833	      0.93357914	    104.47511509	      1.82343474	      4.10673339	      8.73231727	      8.21643549	      0.12927032	     39.43508246	      0.68827203	     29.82596172
     13.46666667	     -7.23969416	      2.78552504	      5.29440554	      2.33786916	      0.91220718	      0.98022365	     37.66030305	     -6.94103570	      0.66367750	    102.49959346	      1.78895539	      4.31635497	      6.14212699	      7.40707020	      0.42724227	     37.31251166	      0.65122618	     28.23028150
     13.47333333	     -7.37936818	      2.09411917	      5.06021738	      2.33911725	      0.91577572	      0.97993011	     39.16761411	     -6.28460518	      0.30833794	    100.21445379	      1.74907218	      4.39713716	      3.71591070	      6.54225821	      0.59458813	     35.07773107	      0.61222190	     26.19141464
     13.48000000	     -7.50951331	      1.36712526	      4.78069751	      2.34070702	      0.91968500	      0.97978824	     40.43622929	     -5.53774723	     -0.11655489	     97.58749484	      1.70322309	      4.41422491	      1.25774315	      5.63116101	      0.63509999	     32.70836542	      0.57086867	     23.73266681
